<svg xmlns="http://www.w3.org/2000/svg" width="800" height="800" viewBox="0 0 100 100" fill="none">
  <!-- Background Gradient -->
  <defs>
    <radialGradient id="background-gradient" cx="50%" cy="50%" r="50%">
      <stop offset="0%" stop-color="#f7f7f7" />
      <stop offset="100%" stop-color="#eaeaea" />
    </radialGradient>
  </defs>
  <rect width="100" height="100" fill="url(#background-gradient)" />

  <!-- Central Arabic-Inspired Motif -->
  <g transform="translate(50, 50)" opacity="0.6">
    <!-- Outer Ring -->
    <circle cx="0" cy="0" r="30" stroke="#004d7a" stroke-width="1.5" fill="none" />
    <!-- Star Design -->
    <path d="M0,-20 L5,-5 L20,-5 L8,5 L12,20 L0,10 L-12,20 L-8,5 L-20,-5 L-5,-5 Z" 
          fill="#00c6ff" opacity="0.5" />
  </g>

  <!-- Left: Arabian Seal -->
  <g transform="translate(20, 50)" opacity="0.4">
    <circle cx="0" cy="0" r="15" fill="#004d7a" />
    <path d="M-10,0 Q-5,-10 0,0 Q5,-10 10,0 Q5,10 0,0 Q-5,10 -10,0 Z" fill="#ffffff" />
  </g>

  <!-- Right: Quality Seal -->
  <g transform="translate(80, 50)" opacity="0.4">
    <circle cx="0" cy="0" r="15" fill="#00c6ff" />
    <path d="M0,-8 L3,-3 L8,-3 L4,2 L5,8 L0,5 L-5,8 L-4,2 L-8,-3 L-3,-3 Z" fill="#ffffff" />
  </g>
</svg>
